<svg xmlns="http://www.w3.org/2000/svg" viewBox="0 0 115.67 115.14"><title>Asset 19Inner</title><g id="Layer_2" data-name="Layer 2"><g id="Layer_11" data-name="Layer 11"><path d="M57.79,0,29.18,16.52v33L57.79,66.07,86.4,49.55v-33ZM66,23.53a6,6,0,0,0-.33.71,4.74,4.74,0,0,0,.8-.93l0,.06a7.67,7.67,0,0,1,.87.19c3.27.82,6.62,1.61,10,2.43,1.87.43,3.73.92,5.6,1.43v3.31l-.45-.16c-4.33-1.39-8.59-2.78-12.84-4.17l-3.93-1.23c-.41-.16-.49-.08-.65.33-.09.16-.09.24-.17.41a1,1,0,0,1,.08-.49c.82-2.62,1.64-5.24,2.38-7.86a34.36,34.36,0,0,0,1.31-6.95,1.1,1.1,0,0,0,0-.25l3.3,1.9,0,.06c-.82,1.56-1.64,3.2-2.46,4.75C68.29,19.2,67.14,21.41,66,23.53Zm-1.23,4c.41.17.74.25,1.15.41C70.25,29.59,74.67,31.31,79,33c1.29.51,2.58,1.18,3.88,1.81v4c-1.21-.7-2.38-1.45-3.55-2.1A117.1,117.1,0,0,0,68.7,31.88c-1.39-.57-2.87-1.23-4.26-1.8-.24-.16-.49-.24-.41-.57.09-.57.25-1.15.33-1.72C64.44,27.54,64.53,27.46,64.77,27.54Zm18.12-3.68-3.55-.57c-3.52-.57-7-1.06-10.56-1.56l-1-.13.15-.19.69-1a.85.85,0,0,0,.17,0c3.27.16,6.46.24,9.74.4,1.45,0,2.91.11,4.37.2Zm-.45-5.53c-1.46.07-3,.15-4.5.3l-5.81.49-2.78.24c.17-.24.69-.77.33-.41,1.55-1.72,3-3.52,4.58-5.23l.06-.08,1.15.66-5.14,4.16c-.08.08-.16.25-.24.33h0c0,.08.08.08.08.16,3.27-.76,6.46-1.45,9.66-2.13Zm-9.32-.85c-.25.08-.58.25-.9.33,1.3-.83,3-1.79,4.66-2.69l1,.56C76.3,16.25,74.67,16.91,73.12,17.48ZM32.69,47.57v-2l2.05.11c3.52.16,7.12.24,10.64.41.65,0,1.23.08,2,.08a1.65,1.65,0,0,1-1.14.82l-2.13.24c-3.55.23-7.18.52-10.74.76Zm6.9,4c1.31-.83,3.68-2.34,4-2.58s0-.24-.33-.08c-.12,0-3.45,1-5.39,1.65l-1.32-.76,2.54-.56c2.21-.41,4.33-.9,6.54-1.39v.08a7.09,7.09,0,0,0-.81.57l-.17.16L43.25,49.8c-.94.77-1.89,1.49-2.83,2.23ZM42.06,53,44,50.7c1.47-1.8,3-3.68,4.45-5.48l.18-.33c.1-.17.19-.33.1-.33l-.13.15-4-.56c-2.86-.4-5.64-.81-8.51-1.22l-3.44-.57V39.21c5,1.24,9.91,2.45,14.9,3.72l2.12.49,1.11-2.37c-.09.11-.24.13-.45.08-1-.33-1.88-.58-2.86-.9-4.95-1.54-10-3-14.82-4.83V31.5l1.64.79c4.09,1.88,8.27,3.52,12.52,5.07,1.47.49,2.86,1.07,4.34,1.56.41.16.41.16.24.65l-.49,1.23-.12.25h0l-1.11,2.37c-.32.65-.57,1.23-.9,1.8-1.59,3-3.37,5.86-4.83,8.87Zm6.35-1.54c.73-2.7,1.47-5.32,2.29-7.94a42.63,42.63,0,0,0,1.63-6.38c.09-.58,0-.58-.49-.82-3.43-1.47-6.87-2.86-10.23-4.42A61.7,61.7,0,0,1,32.69,27V22.46c.06.06.11.12.17.17A42.56,42.56,0,0,0,41,28.36a111.91,111.91,0,0,0,11,5.32c.22.09.33.13.38.21a74.36,74.36,0,0,1-.55,10.18,38.3,38.3,0,0,0-.32,6.14A23.09,23.09,0,0,0,54,59.9L47.7,56.24A20.69,20.69,0,0,1,48.41,51.44Zm13.73,8.11a24.59,24.59,0,0,1-5.39-7.21,27.76,27.76,0,0,1-2.53-10.89c-.25-2.86-.41-5.64-.74-8.51a24.46,24.46,0,0,0-2.95-8.83,2.47,2.47,0,0,0-.82-.82c-.49-.33-1.06-.66-1.63-1a22,22,0,0,1-4.42-3.44,3.07,3.07,0,0,1-.57-.9c-.17-.33,0-.57.41-.49a5.42,5.42,0,0,1,1.88.82,19.11,19.11,0,0,1,5.07,5.15,27.09,27.09,0,0,1,4,9.82c.66,2.95,1.15,5.81,1.8,8.68A25.06,25.06,0,0,0,66.41,57.08Zm8.38-4.84A25,25,0,0,1,61,46a35.85,35.85,0,0,1-3.6-8.59c-.74-2.53-1.39-5.23-2.29-7.77a24.28,24.28,0,0,0-6.47-10.15,17.75,17.75,0,0,0-5.73-3.68,5.75,5.75,0,0,0-2.86-.49,1.51,1.51,0,0,0-1.39,2.13c0,.08.08.16.08.24a7.53,7.53,0,0,0,1.88,2.7,30.65,30.65,0,0,0,5.89,4.34c1.56.9,3,1.72,4.59,2.54a1.13,1.13,0,0,1,.65.81,7.89,7.89,0,0,1,.49,2c0,.24,0,.43,0,.59-.23-.08-.49-.19-.76-.26-1.4-.74-2.87-1.39-4.26-2.13A46.38,46.38,0,0,1,38,22.14a13.05,13.05,0,0,1-3.72-4.48l7.46-4.31A14.48,14.48,0,0,1,43.5,14a22,22,0,0,1,9.24,7.37,29.65,29.65,0,0,1,4.5,9.33c.82,2.53,1.56,5.07,2.46,7.6A25.11,25.11,0,0,0,67.8,49.8a23.33,23.33,0,0,0,5.59,3.25ZM76.64,51a5.26,5.26,0,0,1-1.56.08,10,10,0,0,1-4-1.48,21.06,21.06,0,0,1-7.69-7.93A34.78,34.78,0,0,1,60,33.11c-.73-2.62-1.39-5.32-2.37-7.86A24.33,24.33,0,0,0,45.07,11.44l3.86-2.23.38.25a24.23,24.23,0,0,1,7.44,7.77,29.63,29.63,0,0,1,3.19,8.68c.58,2.7,1.07,5.48,1.72,8.26a24.92,24.92,0,0,0,4.58,9.9,15.47,15.47,0,0,0,5,4.5,9.31,9.31,0,0,0,1.56.58c.49.16.74-.25.57-.66-.08-.08-.16-.33-.24-.41a13.44,13.44,0,0,0-1.48-1.63,19.51,19.51,0,0,0-4.25-3,4.2,4.2,0,0,1-2.13-2.29c-.16-.41-.33-.82-.49-1.15a7.34,7.34,0,0,0-.33-.82,2.66,2.66,0,0,1,.82.33,48,48,0,0,1,8.51,5.32A14.42,14.42,0,0,1,77,48.41a2.78,2.78,0,0,1,.41,1.47C77.37,50.45,77.13,50.86,76.64,51Zm5-2.64a7,7,0,0,0-.47-.8,18.92,18.92,0,0,0-4.42-4.42,60.79,60.79,0,0,0-10.64-6.3c-.65-.33-1.23-.57-1.88-.9-.41-.16-.49-.08-.49.33,0,.24.08.49.08.73a1.31,1.31,0,0,1-.25-.32,45,45,0,0,1-1.14-8.1c-.17-2.54-.33-5.08-.66-7.53A23.82,23.82,0,0,0,54.05,6.43l-.11-.11L57.79,4.1l3.63,2.09a5.1,5.1,0,0,0,.24.65,20.35,20.35,0,0,1,2.54,9.58,60.75,60.75,0,0,1-.57,9.32,56.3,56.3,0,0,0-.33,7.53c0,.25.08.57.08.82h.16c0-.25.09-.49.09-.74s.08-.41.4-.24a116,116,0,0,1,11.46,5.64,48.75,48.75,0,0,1,7.4,5.31v3.51Z"/><path d="M0,90.72V89.65l1.75-.42V78.9L0,78.48V77.42H6.59v1.06l-1.75.42V89.23l1.75.42v1.07Z"/><path d="M7.79,90.72v-1l1.61-.38V83H7.79v-1l3-.72h1.5v.93a4,4,0,0,1,4.21-1,2.87,2.87,0,0,1,1,.62,2.72,2.72,0,0,1,.63,1,3.08,3.08,0,0,1,.23,1.19v5.42l1.62.38v1H14.25v-1l1.23-.38V84.45a6,6,0,0,0-.06-1,1.39,1.39,0,0,0-.22-.56.68.68,0,0,0-.41-.27,2.77,2.77,0,0,0-.64-.07,3.33,3.33,0,0,0-1.82.84v5.89l1.24.38v1Z"/><path d="M20.73,90.72v-1l1.61-.38V83H20.73v-1l3-.72h1.5v.93a4,4,0,0,1,4.21-1,2.87,2.87,0,0,1,1,.62,2.72,2.72,0,0,1,.63,1,3.08,3.08,0,0,1,.23,1.19v5.42l1.61.38v1H27.19v-1l1.23-.38V84.45a6,6,0,0,0-.06-1,1.39,1.39,0,0,0-.22-.56.68.68,0,0,0-.41-.27,2.77,2.77,0,0,0-.64-.07,3.3,3.3,0,0,0-1.82.84v5.89l1.23.38v1Z"/><path d="M33.76,85.85A5,5,0,0,1,35,82.27a4.49,4.49,0,0,1,3.43-1.34,3.9,3.9,0,0,1,3.33,1.5,6,6,0,0,1,1.13,3.71H36.69a4.18,4.18,0,0,0,1,2.41,2.84,2.84,0,0,0,2.24,1,6.56,6.56,0,0,0,2.2-.42l.4,1.08a8.53,8.53,0,0,1-3.46.78,5.26,5.26,0,0,1-3.88-1.43A5,5,0,0,1,33.76,85.85ZM36.69,85l3.21-.21a5.44,5.44,0,0,0-.06-.84,3.11,3.11,0,0,0-.32-1,1.34,1.34,0,0,0-1.12-.79,1.43,1.43,0,0,0-1.25.78,2.82,2.82,0,0,0-.38,1A4.44,4.44,0,0,0,36.69,85Z"/><path d="M44,90.72v-1l1.62-.38V83H44v-1l3-.72h1.5v1.14A4.63,4.63,0,0,1,52,80.93a2.86,2.86,0,0,1,.11.8,6.51,6.51,0,0,1-.19,1.63L49.48,83a4.07,4.07,0,0,0-.92.61v5.76l2,.38v1Z"/><path d="M53.26,90.11v-3.5h1.06l1,2.66a6,6,0,0,0,2,.29,5,5,0,0,0,2.23-.46,1.45,1.45,0,0,0,.94-1.35,1.75,1.75,0,0,0-.05-.4,1.14,1.14,0,0,0-.16-.36c-.08-.11-.15-.22-.23-.31a1.51,1.51,0,0,0-.34-.31l-.4-.26-.5-.28-1.17-.57-.69-.32A7.86,7.86,0,0,1,54.23,83a3.71,3.71,0,0,1-.82-2.46,3,3,0,0,1,1.29-2.5A5.59,5.59,0,0,1,58,77.13a13.68,13.68,0,0,1,4.15.59v3.5H61.12l-.93-2.55a7.26,7.26,0,0,0-1.5-.17,4.32,4.32,0,0,0-1.92.39A1.23,1.23,0,0,0,56,80a1.34,1.34,0,0,0,.64,1.11,14.71,14.71,0,0,0,2.27,1.17l.38.17a8.09,8.09,0,0,1,2.85,1.94A3.82,3.82,0,0,1,63,87a3.62,3.62,0,0,1-.71,2.33,3.9,3.9,0,0,1-1.87,1.29A8.24,8.24,0,0,1,57.8,91,12,12,0,0,1,53.26,90.11Z"/><path d="M69.54,91a5.38,5.38,0,0,1-2-.38,5,5,0,0,1-1.63-1A5.13,5.13,0,0,1,64.81,88a5.09,5.09,0,0,1,1.08-5.64,4.84,4.84,0,0,1,1.63-1,5.67,5.67,0,0,1,4,0,4.94,4.94,0,0,1,1.63,1,4.73,4.73,0,0,1,1.08,1.58,5.43,5.43,0,0,1,0,4,4.85,4.85,0,0,1-1.08,1.61,5,5,0,0,1-1.63,1.05A5.33,5.33,0,0,1,69.54,91Zm-2.07-5a6.19,6.19,0,0,0,.52,2.8,1.69,1.69,0,0,0,3.1,0,6.19,6.19,0,0,0,.52-2.8,6.12,6.12,0,0,0-.52-2.78,1.7,1.7,0,0,0-3.1,0A6.12,6.12,0,0,0,67.47,86Z"/><path d="M75.37,82.22v-1h4.54v6.55a2.65,2.65,0,0,0,.24,1.34,1.06,1.06,0,0,0,1,.37,2.58,2.58,0,0,0,1.14-.28,2.67,2.67,0,0,0,1-.76V82.6L82,82.22v-1h4.18v8.07h1.48v.82a5.51,5.51,0,0,1-.68.41l-.57.24a2.45,2.45,0,0,1-.64.18,3.5,3.5,0,0,1-.62.06,2,2,0,0,1-1.92-1.23A4.72,4.72,0,0,1,79.9,91C78,91,77,90,77,88V82.6Z"/><path d="M88.45,90.72v-1l1.61-.38V83H88.45v-1l3-.72H93v1.14a4.61,4.61,0,0,1,3.38-1.43,2.86,2.86,0,0,1,.11.8,6.51,6.51,0,0,1-.19,1.63L93.9,83a3.81,3.81,0,0,0-.91.61v5.76l2,.38v1Z"/><path d="M97.3,85.93a4.87,4.87,0,0,1,4.88-5,7.22,7.22,0,0,1,3.25.8A2.6,2.6,0,0,1,104,84.05l-1.63-1.88h-.11a2.56,2.56,0,0,0-1.41,1.16,4.82,4.82,0,0,0-.61,2.64,4,4,0,0,0,.86,2.85,2.94,2.94,0,0,0,2.13.78,6.36,6.36,0,0,0,1.07-.1,7.62,7.62,0,0,0,1.07-.27l.23,1.13a8.1,8.1,0,0,1-3.15.64,5.24,5.24,0,0,1-3.67-1.37A4.73,4.73,0,0,1,97.3,85.93Z"/><path d="M106.51,85.85a5,5,0,0,1,1.27-3.58,4.49,4.49,0,0,1,3.43-1.34,3.9,3.9,0,0,1,3.33,1.5,6,6,0,0,1,1.13,3.71h-6.23a4.25,4.25,0,0,0,1,2.41,2.84,2.84,0,0,0,2.24,1,6.56,6.56,0,0,0,2.2-.42l.4,1.08a8.53,8.53,0,0,1-3.46.78A5.27,5.27,0,0,1,108,89.57,5,5,0,0,1,106.51,85.85Zm2.93-.89,3.21-.21a5.44,5.44,0,0,0-.06-.84,3.11,3.11,0,0,0-.32-1,1.33,1.33,0,0,0-1.12-.79,1.45,1.45,0,0,0-1.25.78,2.82,2.82,0,0,0-.38,1A4.44,4.44,0,0,0,109.44,85Z"/><path d="M.78,114.72v-1.57l2.58-.62V97.3L.78,96.68V95.12H8.71A11.86,11.86,0,0,1,15,96.53a5.16,5.16,0,0,1,2.24,4.72,5.72,5.72,0,0,1-.72,2.92,5,5,0,0,1-2,2,9.65,9.65,0,0,1-2.71,1.07,14.19,14.19,0,0,1-3.22.35H7.92v5l3.42.62v1.57Zm7.14-9.22h.59a4.16,4.16,0,0,0,2.9-1.07,4.09,4.09,0,0,0,1.19-3.18,4,4,0,0,0-1.11-3,3.91,3.91,0,0,0-2.78-1H7.92Z"/><path d="M18.51,111.24a4.12,4.12,0,0,1,2-3.71c1.33-.84,3.49-1.27,6.48-1.27v-.84c0-.56,0-1,0-1.22a6.37,6.37,0,0,0-.13-.91,1.55,1.55,0,0,0-.32-.75,1.86,1.86,0,0,0-.63-.41,2.66,2.66,0,0,0-1-.18L21.31,105a3.65,3.65,0,0,1-1.91-3.39l.84-.36a18.15,18.15,0,0,1,2.07-.61,12.69,12.69,0,0,1,3-.37q6,0,6,4.81v7.51h2.18v1.2l-.39.36a4.57,4.57,0,0,1-1.09.59,4.22,4.22,0,0,1-1.74.37,3.66,3.66,0,0,1-3.16-1.43A6.61,6.61,0,0,1,23,115.14a5.23,5.23,0,0,1-3.23-1A3.43,3.43,0,0,1,18.51,111.24ZM23,111a1.65,1.65,0,0,0,.55,1.29,1.94,1.94,0,0,0,1.33.48,2.71,2.71,0,0,0,2.1-.93V108a4.76,4.76,0,0,0-2.77.82A2.54,2.54,0,0,0,23,111Z"/><path d="M34.47,102.68v-1.12l4.76-3.39h1v2.69l3.47-.14v2H40.26v8a4.3,4.3,0,0,0,.31,1.94,1.31,1.31,0,0,0,1.26.56,5.1,5.1,0,0,0,1.88-.51l.44,1.57a7.4,7.4,0,0,1-3.55.9q-4.65,0-4.65-4.31v-8.15Z"/><path d="M45.05,102.68v-1.12l4.76-3.39h1v2.69l3.47-.14v2H50.85v8a4.47,4.47,0,0,0,.3,1.94,1.32,1.32,0,0,0,1.26.56,5.06,5.06,0,0,0,1.88-.51l.45,1.57a7.44,7.44,0,0,1-3.56.9q-4.65,0-4.65-4.31v-8.15Z"/><path d="M55.83,107.55a7.4,7.4,0,0,1,1.86-5.28,6.61,6.61,0,0,1,5.06-2,5.75,5.75,0,0,1,4.91,2.21A8.8,8.8,0,0,1,69.33,108H60.14a6.18,6.18,0,0,0,1.49,3.55,4.17,4.17,0,0,0,3.3,1.49,9.79,9.79,0,0,0,3.25-.62l.59,1.6a12.71,12.71,0,0,1-5.1,1.15A7.75,7.75,0,0,1,57.94,113,7.39,7.39,0,0,1,55.83,107.55Zm4.31-1.32,4.73-.31a8.08,8.08,0,0,0-.08-1.24,4.89,4.89,0,0,0-.48-1.39,2,2,0,0,0-1.65-1.17,2.16,2.16,0,0,0-1.85,1.14,4.51,4.51,0,0,0-.56,1.54A7.1,7.1,0,0,0,60.14,106.23Z"/><path d="M71,114.72v-1.49l2.38-.56v-9.41H71v-1.48l4.48-1.06h2.21v1.68a6.81,6.81,0,0,1,5-2.1,3.6,3.6,0,0,1,.17,1.17,9.77,9.77,0,0,1-.28,2.41L79,103.29a5.87,5.87,0,0,0-1.35.9v8.48l2.94.56v1.49Z"/><path d="M84,114.72v-1.49l2.38-.56v-9.41H84v-1.48l4.48-1.06h2.21v1.37a6,6,0,0,1,6.2-1.47,4,4,0,0,1,1.48.91,4.11,4.11,0,0,1,.94,1.4,4.45,4.45,0,0,1,.34,1.76v8l2.38.56v1.49H93.55v-1.49l1.82-.56v-7.19a8.5,8.5,0,0,0-.1-1.4,2.15,2.15,0,0,0-.32-.83,1,1,0,0,0-.61-.39,3.53,3.53,0,0,0-.93-.1A4.9,4.9,0,0,0,90.72,104v8.68l1.82.56v1.49Z"/><path d="M103.43,114.49v-4H105l1,2.77q1,.06,1.59.06c2.19,0,3.28-.48,3.28-1.43a1.26,1.26,0,0,0-.59-1,7.1,7.1,0,0,0-1.12-.69c-.35-.17-1-.47-2-.9a7.41,7.41,0,0,1-2.81-1.91,4.26,4.26,0,0,1-.88-2.79,3.56,3.56,0,0,1,1.69-3.19,8.07,8.07,0,0,1,4.44-1.09,14.94,14.94,0,0,1,4.28.53v3.81h-1.45l-.87-2.47a10.58,10.58,0,0,0-1.68-.14c-1.79,0-2.69.44-2.69,1.32a1.3,1.3,0,0,0,.25.7,2.91,2.91,0,0,0,.91.73c.44.24,1.14.57,2.09,1a9.64,9.64,0,0,1,3.44,2.22,4.39,4.39,0,0,1,.9,2.9,3.51,3.51,0,0,1-1.71,3.16,8.3,8.3,0,0,1-4.53,1.1A19.8,19.8,0,0,1,103.43,114.49Z"/></g></g></svg>