<svg xmlns="http://www.w3.org/2000/svg" viewBox="0 0 185.34 66.07"><title>Asset 20Inner</title><g id="Layer_2" data-name="Layer 2"><g id="Layer_11" data-name="Layer 11"><path d="M28.61,0,0,16.52v33L28.61,66.07,57.22,49.55v-33Zm8.21,23.53a6,6,0,0,0-.33.71,5.05,5.05,0,0,0,.81-.93l0,.06a7.67,7.67,0,0,1,.87.19c3.27.82,6.63,1.61,10,2.43,1.87.43,3.73.92,5.6,1.43v3.31l-.44-.16c-4.34-1.39-8.6-2.78-12.85-4.17l-3.93-1.23c-.41-.16-.49-.08-.65.33-.08.16-.08.24-.17.41a.93.93,0,0,1,.09-.49c.81-2.62,1.63-5.24,2.37-7.86a34.36,34.36,0,0,0,1.31-6.95c0-.1,0-.18,0-.25l3.29,1.9,0,.06c-.82,1.56-1.64,3.2-2.45,4.75C39.11,19.2,38,21.41,36.82,23.53Zm-1.23,4c.41.17.74.25,1.15.41,4.33,1.64,8.75,3.36,13.09,5.08,1.29.51,2.59,1.18,3.88,1.81v4c-1.21-.7-2.38-1.45-3.55-2.1a117.1,117.1,0,0,0-10.64-4.91c-1.39-.57-2.86-1.23-4.26-1.8-.24-.16-.49-.24-.4-.57.08-.57.24-1.15.32-1.72C35.26,27.54,35.35,27.46,35.59,27.54Zm18.12-3.68-3.55-.57c-3.52-.57-7-1.06-10.56-1.56l-1-.13.15-.19.69-1a.85.85,0,0,0,.17,0c3.27.16,6.47.24,9.74.4,1.46,0,2.91.11,4.37.2Zm-.45-5.53c-1.46.07-3,.15-4.49.3L43,19.12l-2.79.24c.17-.24.69-.77.33-.41,1.56-1.72,3-3.52,4.58-5.23l.06-.08,1.15.66-5.13,4.16c-.09.08-.17.25-.25.33h0c0,.08.08.08.08.16,3.27-.76,6.47-1.45,9.66-2.13Zm-9.32-.85c-.25.08-.57.25-.9.33C44.35,17,46,16,47.7,15.12l1,.56C47.12,16.25,45.49,16.91,43.94,17.48ZM3.51,47.57v-2l2.05.11c3.52.16,7.12.24,10.64.41.65,0,1.23.08,2,.08a1.63,1.63,0,0,1-1.14.82l-2.13.24c-3.55.23-7.17.52-10.74.76Zm6.9,4c1.31-.83,3.69-2.34,4-2.58s0-.24-.33-.08c-.12,0-3.45,1-5.39,1.65l-1.32-.76,2.54-.56c2.21-.41,4.34-.9,6.55-1.39v.08a6.46,6.46,0,0,0-.82.57l-.17.16L14.07,49.8c-.94.77-1.88,1.49-2.83,2.23ZM12.88,53l1.93-2.28c1.47-1.8,3-3.68,4.45-5.48l.18-.33c.1-.17.19-.33.11-.33l-.14.15-3.95-.56c-2.86-.4-5.64-.81-8.51-1.22l-3.44-.57V39.21c5,1.24,9.91,2.45,14.9,3.72.65.16,1.39.32,2.13.49l1.1-2.37c-.09.11-.24.13-.45.08-1-.33-1.88-.58-2.86-.9-4.95-1.54-10-3-14.82-4.83V31.5l1.64.79c4.09,1.88,8.27,3.52,12.52,5.07,1.48.49,2.87,1.07,4.34,1.56.41.16.41.16.24.65l-.49,1.23-.12.25h0l-1.1,2.37c-.33.65-.58,1.23-.9,1.8-1.59,3-3.38,5.86-4.84,8.87Zm6.35-1.54c.73-2.7,1.47-5.32,2.29-7.94a42.63,42.63,0,0,0,1.63-6.38c.09-.58,0-.58-.49-.82-3.43-1.47-6.87-2.86-10.22-4.42A61.28,61.28,0,0,1,3.51,27V22.46l.17.17a42.87,42.87,0,0,0,8.18,5.73,113,113,0,0,0,11,5.32c.22.09.33.13.38.21a74.36,74.36,0,0,1-.55,10.18,38.3,38.3,0,0,0-.32,6.14,23.09,23.09,0,0,0,2.52,9.69l-6.34-3.66A20.69,20.69,0,0,1,19.23,51.44ZM33,59.55a24.59,24.59,0,0,1-5.39-7.21A27.76,27.76,0,0,1,25,41.45c-.25-2.86-.41-5.64-.74-8.51a24.46,24.46,0,0,0-2.95-8.83,2.53,2.53,0,0,0-.81-.82c-.49-.33-1.07-.66-1.64-1a22.29,22.29,0,0,1-4.42-3.44,3.29,3.29,0,0,1-.57-.9c-.17-.33,0-.57.41-.49a5.42,5.42,0,0,1,1.88.82,19,19,0,0,1,5.07,5.15,26.91,26.91,0,0,1,4,9.82c.66,2.95,1.15,5.81,1.8,8.68A25.06,25.06,0,0,0,37.23,57.08Zm8.38-4.84A25,25,0,0,1,31.83,46a35.85,35.85,0,0,1-3.6-8.59c-.74-2.53-1.39-5.23-2.29-7.77a24.28,24.28,0,0,0-6.47-10.15,17.75,17.75,0,0,0-5.73-3.68,5.75,5.75,0,0,0-2.86-.49A1.51,1.51,0,0,0,9.49,17.4c0,.08.08.16.08.24a7.66,7.66,0,0,0,1.88,2.7,30.41,30.41,0,0,0,5.9,4.34c1.55.9,3,1.72,4.58,2.54a1.13,1.13,0,0,1,.65.81,8.39,8.39,0,0,1,.5,2c0,.24,0,.43,0,.59-.22-.08-.49-.19-.76-.26-1.39-.74-2.87-1.39-4.26-2.13a46,46,0,0,1-9.24-6.06,13.08,13.08,0,0,1-3.73-4.48l7.46-4.31a14.48,14.48,0,0,1,1.75.69,22,22,0,0,1,9.24,7.37,29.65,29.65,0,0,1,4.5,9.33c.82,2.53,1.56,5.07,2.46,7.6a25.19,25.19,0,0,0,8.1,11.46,23.33,23.33,0,0,0,5.59,3.25ZM47.46,51A5.26,5.26,0,0,1,45.9,51a10,10,0,0,1-4-1.48,21.06,21.06,0,0,1-7.69-7.93,34.75,34.75,0,0,1-3.35-8.51c-.74-2.62-1.39-5.32-2.38-7.86A24.35,24.35,0,0,0,15.9,11.44l3.85-2.23.38.25a24.23,24.23,0,0,1,7.44,7.77,29.63,29.63,0,0,1,3.19,8.68c.58,2.7,1.07,5.48,1.72,8.26a24.92,24.92,0,0,0,4.58,9.9,15.5,15.5,0,0,0,5,4.5,8.88,8.88,0,0,0,1.55.58c.49.16.74-.25.57-.66-.08-.08-.16-.33-.24-.41a14.23,14.23,0,0,0-1.47-1.63,19.57,19.57,0,0,0-4.26-3,4.2,4.2,0,0,1-2.13-2.29c-.16-.41-.32-.82-.49-1.15a7.34,7.34,0,0,0-.33-.82,2.66,2.66,0,0,1,.82.33,48,48,0,0,1,8.51,5.32,14.22,14.22,0,0,1,3.19,3.52,2.78,2.78,0,0,1,.41,1.47C48.19,50.45,48,50.86,47.46,51Zm5-2.64a5.78,5.78,0,0,0-.47-.8,18.92,18.92,0,0,0-4.42-4.42,60.43,60.43,0,0,0-10.64-6.3c-.65-.33-1.23-.57-1.88-.9-.41-.16-.49-.08-.49.33,0,.24.08.49.08.73a1.31,1.31,0,0,1-.25-.32,45,45,0,0,1-1.14-8.1c-.16-2.54-.33-5.08-.66-7.53A23.77,23.77,0,0,0,24.87,6.43l-.11-.11L28.61,4.1l3.63,2.09a5.1,5.1,0,0,0,.24.65A20.35,20.35,0,0,1,35,16.42a60.75,60.75,0,0,1-.57,9.32,56.3,56.3,0,0,0-.33,7.53c0,.25.08.57.08.82h.16c0-.25.09-.49.09-.74s.08-.41.41-.24a116.9,116.9,0,0,1,11.45,5.64,48.26,48.26,0,0,1,7.4,5.31v3.51Z"/><path d="M69.67,27.26V26.2l1.75-.42V15.44L69.67,15V14h6.59V15l-1.74.41V25.78l1.74.42v1.06Z"/><path d="M77.46,27.26v-1l1.61-.38V19.49H77.46v-1l3-.72H82v.93a4.06,4.06,0,0,1,4.21-1,2.85,2.85,0,0,1,1,.61,2.92,2.92,0,0,1,.63,1,3,3,0,0,1,.23,1.2v5.41l1.62.38v1H83.92v-1l1.23-.38V21a6,6,0,0,0-.06-.95,1.39,1.39,0,0,0-.22-.56.78.78,0,0,0-.41-.27,2.84,2.84,0,0,0-.64-.06A3.37,3.37,0,0,0,82,20v5.89l1.24.38v1Z"/><path d="M90.4,27.26v-1L92,25.87V19.49H90.4v-1l3-.72h1.5v.93a4.06,4.06,0,0,1,4.21-1,2.85,2.85,0,0,1,1,.61,2.92,2.92,0,0,1,.63,1,3.17,3.17,0,0,1,.23,1.2v5.41l1.62.38v1H96.86v-1l1.23-.38V21A6,6,0,0,0,98,20a1.39,1.39,0,0,0-.22-.56.78.78,0,0,0-.41-.27,2.84,2.84,0,0,0-.64-.06,3.37,3.37,0,0,0-1.82.83v5.89l1.24.38v1Z"/><path d="M103.43,22.4a5,5,0,0,1,1.27-3.58,4.45,4.45,0,0,1,3.43-1.34,3.9,3.9,0,0,1,3.33,1.5,5.92,5.92,0,0,1,1.13,3.7h-6.23a4.13,4.13,0,0,0,1,2.41,2.81,2.81,0,0,0,2.24,1,6.56,6.56,0,0,0,2.2-.42l.4,1.09a8.53,8.53,0,0,1-3.46.78,5.22,5.22,0,0,1-3.88-1.44A5,5,0,0,1,103.43,22.4Zm2.93-.9,3.21-.2a5.57,5.57,0,0,0-.06-.85,3.06,3.06,0,0,0-.32-.94,1.35,1.35,0,0,0-1.12-.8,1.45,1.45,0,0,0-1.25.78,2.94,2.94,0,0,0-.38,1.05A4.4,4.4,0,0,0,106.36,21.5Z"/><path d="M113.69,27.26v-1l1.62-.38V19.49h-1.62v-1l3-.72h1.5V18.9a4.63,4.63,0,0,1,3.39-1.42,2.79,2.79,0,0,1,.11.79,6.59,6.59,0,0,1-.19,1.64l-2.39-.4a3.76,3.76,0,0,0-.92.61v5.75l2,.38v1Z"/><path d="M122.93,26.65V23.16H124l1,2.66a6,6,0,0,0,2,.28,5.13,5.13,0,0,0,2.23-.45,1.46,1.46,0,0,0,.94-1.35,1.75,1.75,0,0,0,0-.4,1,1,0,0,0-.16-.36c-.08-.12-.15-.22-.23-.32a1.79,1.79,0,0,0-.34-.3,4.72,4.72,0,0,0-.4-.27c-.11-.07-.28-.16-.5-.27s-.61-.3-1.17-.57l-.69-.32a8,8,0,0,1-2.69-1.91,3.75,3.75,0,0,1-.82-2.46,2.94,2.94,0,0,1,1.29-2.5,5.54,5.54,0,0,1,3.35-.94,13.36,13.36,0,0,1,4.14.59v3.49h-1.07l-.93-2.54a6.67,6.67,0,0,0-1.5-.18,4.32,4.32,0,0,0-1.92.39,1.22,1.22,0,0,0-.79,1.13,1.33,1.33,0,0,0,.63,1.12,15.89,15.89,0,0,0,2.27,1.16l.38.18A8.08,8.08,0,0,1,131.78,21a3.83,3.83,0,0,1,.91,2.59,3.64,3.64,0,0,1-.71,2.33,3.9,3.9,0,0,1-1.87,1.29,8.24,8.24,0,0,1-2.64.39A11.78,11.78,0,0,1,122.93,26.65Z"/><path d="M139.21,27.55a5.38,5.38,0,0,1-2-.38,5,5,0,0,1-1.63-1.05,5,5,0,0,1-1.08-1.59,5.05,5.05,0,0,1-.4-2,5,5,0,0,1,.4-2,5.2,5.2,0,0,1,1.08-1.59,4.82,4.82,0,0,1,1.63-1,5.7,5.7,0,0,1,4,0,4.74,4.74,0,0,1,2.7,2.62,5.12,5.12,0,0,1,.39,2,5.19,5.19,0,0,1-.39,2,4.81,4.81,0,0,1-1.08,1.6,5.11,5.11,0,0,1-1.62,1.06A5.42,5.42,0,0,1,139.21,27.55Zm-2.07-5.06a6.16,6.16,0,0,0,.52,2.8,1.69,1.69,0,0,0,3.1,0,6.16,6.16,0,0,0,.52-2.8,6,6,0,0,0-.52-2.77,1.69,1.69,0,0,0-3.1,0A6,6,0,0,0,137.14,22.49Z"/><path d="M145,18.77v-1h4.54v6.56a2.67,2.67,0,0,0,.24,1.34,1.08,1.08,0,0,0,1,.37,2.6,2.6,0,0,0,1.14-.29,2.56,2.56,0,0,0,1-.76V19.15l-1.23-.38v-1h4.18v8.08h1.48v.81a4.86,4.86,0,0,1-.68.41c-.17.08-.36.17-.57.25a3.36,3.36,0,0,1-.64.18,3.5,3.5,0,0,1-.62.06,2,2,0,0,1-1.92-1.24,4.73,4.73,0,0,1-3.3,1.24c-1.94,0-2.91-1-2.91-3V19.15Z"/><path d="M158.12,27.26v-1l1.61-.38V19.49h-1.61v-1l3-.72h1.5V18.9A4.6,4.6,0,0,1,166,17.48a2.79,2.79,0,0,1,.11.79,6.59,6.59,0,0,1-.19,1.64l-2.39-.4a3.54,3.54,0,0,0-.91.61v5.75l2,.38v1Z"/><path d="M167,22.47a4.85,4.85,0,0,1,4.88-5,7.21,7.21,0,0,1,3.25.79,2.58,2.58,0,0,1-1.39,2.32l-1.63-1.88H172a2.57,2.57,0,0,0-1.41,1.17,4.78,4.78,0,0,0-.61,2.63,4,4,0,0,0,.86,2.85,2.94,2.94,0,0,0,2.13.78,6.35,6.35,0,0,0,1.07-.09c.35-.07.71-.16,1.07-.27l.23,1.12a8.11,8.11,0,0,1-3.15.65,5.3,5.3,0,0,1-3.67-1.37A4.75,4.75,0,0,1,167,22.47Z"/><path d="M176.19,22.4a5,5,0,0,1,1.26-3.58,4.45,4.45,0,0,1,3.43-1.34,3.9,3.9,0,0,1,3.33,1.5,5.92,5.92,0,0,1,1.13,3.7h-6.23a4.19,4.19,0,0,0,1,2.41,2.81,2.81,0,0,0,2.24,1,6.56,6.56,0,0,0,2.2-.42l.4,1.09a8.52,8.52,0,0,1-3.45.78,5.25,5.25,0,0,1-3.89-1.44A5,5,0,0,1,176.19,22.4Zm2.92-.9,3.21-.2a7.34,7.34,0,0,0,0-.85,3.43,3.43,0,0,0-.33-.94,1.34,1.34,0,0,0-1.12-.8,1.45,1.45,0,0,0-1.25.78,2.94,2.94,0,0,0-.38,1.05A4.4,4.4,0,0,0,179.11,21.5Z"/><path d="M70,51.26V49.69l2.57-.61V33.85L70,33.23V31.66h7.92a11.71,11.71,0,0,1,6.3,1.42,5.12,5.12,0,0,1,2.24,4.71,5.86,5.86,0,0,1-.71,2.93,5.31,5.31,0,0,1-2,2,9.75,9.75,0,0,1-2.71,1.06,13.7,13.7,0,0,1-3.22.35h-.73v5l3.41.61v1.57Zm7.14-9.21h.59A4.15,4.15,0,0,0,80.59,41a4.05,4.05,0,0,0,1.19-3.18,4,4,0,0,0-1.1-3,3.93,3.93,0,0,0-2.79-1h-.78Z"/><path d="M87.69,47.79a4.14,4.14,0,0,1,2-3.71q2-1.28,6.49-1.27V42c0-.56,0-1,0-1.22a6,6,0,0,0-.12-.91,1.64,1.64,0,0,0-.33-.76,1.85,1.85,0,0,0-.63-.4,2.43,2.43,0,0,0-1-.19l-3.56,3.08a3.61,3.61,0,0,1-1.9-3.38l.84-.37a15.69,15.69,0,0,1,2.07-.6,12.65,12.65,0,0,1,3-.38q6,0,6,4.82v7.5h2.18v1.21l-.39.36a4.57,4.57,0,0,1-1.09.59,4.37,4.37,0,0,1-1.74.36,3.62,3.62,0,0,1-3.16-1.43,6.57,6.57,0,0,1-4.09,1.43,5.26,5.26,0,0,1-3.24-1A3.42,3.42,0,0,1,87.69,47.79Zm4.51-.25a1.62,1.62,0,0,0,.55,1.29,2,2,0,0,0,1.33.47,2.74,2.74,0,0,0,2.1-.92V44.54a4.82,4.82,0,0,0-2.78.83A2.52,2.52,0,0,0,92.2,47.54Z"/><path d="M103.65,39.22V38.1l4.76-3.39h1V37.4l3.47-.14v2h-3.47v8a4.25,4.25,0,0,0,.31,1.93,1.29,1.29,0,0,0,1.26.56,5.21,5.21,0,0,0,1.87-.5l.45,1.57a7.55,7.55,0,0,1-3.56.89q-4.64,0-4.64-4.31V39.22Z"/><path d="M114.24,39.22V38.1L119,34.71h1V37.4l3.47-.14v2H120v8a4.25,4.25,0,0,0,.31,1.93,1.29,1.29,0,0,0,1.26.56,5.25,5.25,0,0,0,1.88-.5l.44,1.57a7.51,7.51,0,0,1-3.55.89q-4.65,0-4.65-4.31V39.22Z"/><path d="M125,44.09a7.36,7.36,0,0,1,1.86-5.27,6.59,6.59,0,0,1,5.05-2,5.8,5.8,0,0,1,4.92,2.21,8.84,8.84,0,0,1,1.66,5.46h-9.18a6.14,6.14,0,0,0,1.48,3.55,4.15,4.15,0,0,0,3.31,1.49,9.7,9.7,0,0,0,3.24-.61l.59,1.59a12.46,12.46,0,0,1-5.09,1.15,7.74,7.74,0,0,1-5.73-2.11A7.42,7.42,0,0,1,125,44.09Zm4.31-1.31,4.73-.31a9.73,9.73,0,0,0-.08-1.25,5.18,5.18,0,0,0-.48-1.38,2,2,0,0,0-1.65-1.18A2.13,2.13,0,0,0,130,39.81a4.32,4.32,0,0,0-.56,1.54A7.05,7.05,0,0,0,129.33,42.78Z"/><path d="M140.14,51.26V49.78l2.38-.56V39.81h-2.38V38.33l4.48-1.07h2.21v1.68a6.81,6.81,0,0,1,5-2.1A4,4,0,0,1,152,38a9.77,9.77,0,0,1-.28,2.41l-3.53-.59a5.47,5.47,0,0,0-1.34.89v8.49l2.94.56v1.48Z"/><path d="M153.21,51.26V49.78l2.38-.56V39.81h-2.38V38.33l4.48-1.07h2.21v1.37a5.63,5.63,0,0,1,4.23-1.79,5.87,5.87,0,0,1,2,.32,4.25,4.25,0,0,1,1.48.91,4.37,4.37,0,0,1,.94,1.4,4.68,4.68,0,0,1,.33,1.77v8l2.38.56v1.48h-8.51V49.78l1.82-.56V42a7.6,7.6,0,0,0-.1-1.4,1.83,1.83,0,0,0-.32-.82,1.09,1.09,0,0,0-.6-.4,4.16,4.16,0,0,0-.94-.09,4.93,4.93,0,0,0-2.69,1.23v8.68l1.82.56v1.48Z"/><path d="M172.62,51V47h1.56l1,2.78c.67,0,1.21,0,1.6,0,2.18,0,3.27-.47,3.27-1.43a1.25,1.25,0,0,0-.58-1,6.71,6.71,0,0,0-1.12-.68c-.36-.17-1-.47-2-.9a7.26,7.26,0,0,1-2.81-1.92,4.25,4.25,0,0,1-.89-2.78,3.58,3.58,0,0,1,1.7-3.2,8.15,8.15,0,0,1,4.44-1.09,15.35,15.35,0,0,1,4.28.53v3.81H181.6l-.86-2.46a9.52,9.52,0,0,0-1.68-.14c-1.8,0-2.69.44-2.69,1.31a1.2,1.2,0,0,0,.25.7,2.56,2.56,0,0,0,.91.73c.44.24,1.13.57,2.09,1a10,10,0,0,1,3.44,2.23,4.37,4.37,0,0,1,.9,2.9,3.53,3.53,0,0,1-1.71,3.16,8.31,8.31,0,0,1-4.54,1.09A19.78,19.78,0,0,1,172.62,51Z"/></g></g></svg>